<mxfile host="app.diagrams.net" modified="2023-12-05T05:05:38.653Z" agent="Mozilla/5.0 (Windows NT 10.0; Win64; x64) AppleWebKit/537.36 (KHTML, like Gecko) Chrome/119.0.0.0 Safari/537.36" etag="G23MlZWGaIMdf8c-70BL" version="22.1.5" type="github">
  <diagram id="C5RBs43oDa-KdzZeNtuy" name="Page-1">
    <mxGraphModel dx="1434" dy="758" grid="1" gridSize="10" guides="1" tooltips="1" connect="1" arrows="1" fold="1" page="1" pageScale="1" pageWidth="827" pageHeight="1169" math="0" shadow="0">
      <root>
        <mxCell id="WIyWlLk6GJQsqaUBKTNV-0" />
        <mxCell id="WIyWlLk6GJQsqaUBKTNV-1" parent="WIyWlLk6GJQsqaUBKTNV-0" />
        <mxCell id="gNgsm83nMWRvYjlt7WEY-8" value="" style="edgeStyle=none;rounded=0;orthogonalLoop=1;jettySize=auto;html=1;" edge="1" parent="WIyWlLk6GJQsqaUBKTNV-1" source="gNgsm83nMWRvYjlt7WEY-2" target="gNgsm83nMWRvYjlt7WEY-7">
          <mxGeometry relative="1" as="geometry" />
        </mxCell>
        <mxCell id="gNgsm83nMWRvYjlt7WEY-10" value="" style="edgeStyle=none;rounded=0;orthogonalLoop=1;jettySize=auto;html=1;" edge="1" parent="WIyWlLk6GJQsqaUBKTNV-1" source="gNgsm83nMWRvYjlt7WEY-2" target="gNgsm83nMWRvYjlt7WEY-3">
          <mxGeometry relative="1" as="geometry" />
        </mxCell>
        <mxCell id="gNgsm83nMWRvYjlt7WEY-13" value="" style="edgeStyle=none;rounded=0;orthogonalLoop=1;jettySize=auto;html=1;" edge="1" parent="WIyWlLk6GJQsqaUBKTNV-1" source="gNgsm83nMWRvYjlt7WEY-2" target="gNgsm83nMWRvYjlt7WEY-12">
          <mxGeometry relative="1" as="geometry" />
        </mxCell>
        <mxCell id="gNgsm83nMWRvYjlt7WEY-33" value="" style="edgeStyle=none;rounded=0;orthogonalLoop=1;jettySize=auto;html=1;" edge="1" parent="WIyWlLk6GJQsqaUBKTNV-1" source="gNgsm83nMWRvYjlt7WEY-2" target="gNgsm83nMWRvYjlt7WEY-32">
          <mxGeometry relative="1" as="geometry" />
        </mxCell>
        <mxCell id="gNgsm83nMWRvYjlt7WEY-2" value="블라인드 게시판(예시)" style="rounded=1;whiteSpace=wrap;html=1;" vertex="1" parent="WIyWlLk6GJQsqaUBKTNV-1">
          <mxGeometry x="320" y="30" width="200" height="60" as="geometry" />
        </mxCell>
        <mxCell id="gNgsm83nMWRvYjlt7WEY-15" value="" style="edgeStyle=none;rounded=0;orthogonalLoop=1;jettySize=auto;html=1;" edge="1" parent="WIyWlLk6GJQsqaUBKTNV-1" source="gNgsm83nMWRvYjlt7WEY-3" target="gNgsm83nMWRvYjlt7WEY-14">
          <mxGeometry relative="1" as="geometry" />
        </mxCell>
        <mxCell id="gNgsm83nMWRvYjlt7WEY-3" value="회원관리" style="rounded=1;whiteSpace=wrap;html=1;" vertex="1" parent="WIyWlLk6GJQsqaUBKTNV-1">
          <mxGeometry x="70" y="190" width="120" height="60" as="geometry" />
        </mxCell>
        <mxCell id="gNgsm83nMWRvYjlt7WEY-40" value="" style="edgeStyle=none;rounded=0;orthogonalLoop=1;jettySize=auto;html=1;" edge="1" parent="WIyWlLk6GJQsqaUBKTNV-1" source="gNgsm83nMWRvYjlt7WEY-7" target="gNgsm83nMWRvYjlt7WEY-39">
          <mxGeometry relative="1" as="geometry" />
        </mxCell>
        <mxCell id="gNgsm83nMWRvYjlt7WEY-7" value="로그인" style="whiteSpace=wrap;html=1;rounded=1;" vertex="1" parent="WIyWlLk6GJQsqaUBKTNV-1">
          <mxGeometry x="270" y="190" width="120" height="60" as="geometry" />
        </mxCell>
        <mxCell id="gNgsm83nMWRvYjlt7WEY-38" value="" style="edgeStyle=none;rounded=0;orthogonalLoop=1;jettySize=auto;html=1;" edge="1" parent="WIyWlLk6GJQsqaUBKTNV-1" source="gNgsm83nMWRvYjlt7WEY-12" target="gNgsm83nMWRvYjlt7WEY-37">
          <mxGeometry relative="1" as="geometry" />
        </mxCell>
        <mxCell id="gNgsm83nMWRvYjlt7WEY-12" value="게시판" style="whiteSpace=wrap;html=1;rounded=1;" vertex="1" parent="WIyWlLk6GJQsqaUBKTNV-1">
          <mxGeometry x="650" y="190" width="120" height="60" as="geometry" />
        </mxCell>
        <mxCell id="gNgsm83nMWRvYjlt7WEY-17" value="" style="edgeStyle=none;rounded=0;orthogonalLoop=1;jettySize=auto;html=1;" edge="1" parent="WIyWlLk6GJQsqaUBKTNV-1" source="gNgsm83nMWRvYjlt7WEY-14" target="gNgsm83nMWRvYjlt7WEY-16">
          <mxGeometry relative="1" as="geometry" />
        </mxCell>
        <mxCell id="gNgsm83nMWRvYjlt7WEY-14" value="정보입력" style="whiteSpace=wrap;html=1;rounded=1;" vertex="1" parent="WIyWlLk6GJQsqaUBKTNV-1">
          <mxGeometry x="10" y="290" width="120" height="60" as="geometry" />
        </mxCell>
        <mxCell id="gNgsm83nMWRvYjlt7WEY-35" value="" style="edgeStyle=none;rounded=0;orthogonalLoop=1;jettySize=auto;html=1;" edge="1" parent="WIyWlLk6GJQsqaUBKTNV-1" source="gNgsm83nMWRvYjlt7WEY-16" target="gNgsm83nMWRvYjlt7WEY-34">
          <mxGeometry relative="1" as="geometry" />
        </mxCell>
        <mxCell id="gNgsm83nMWRvYjlt7WEY-16" value="유효성 검사" style="whiteSpace=wrap;html=1;rounded=1;" vertex="1" parent="WIyWlLk6GJQsqaUBKTNV-1">
          <mxGeometry x="10" y="400" width="120" height="60" as="geometry" />
        </mxCell>
        <mxCell id="gNgsm83nMWRvYjlt7WEY-32" value="DB" style="whiteSpace=wrap;html=1;rounded=1;" vertex="1" parent="WIyWlLk6GJQsqaUBKTNV-1">
          <mxGeometry x="450" y="190" width="120" height="60" as="geometry" />
        </mxCell>
        <mxCell id="gNgsm83nMWRvYjlt7WEY-34" value="DB 저장" style="whiteSpace=wrap;html=1;rounded=1;" vertex="1" parent="WIyWlLk6GJQsqaUBKTNV-1">
          <mxGeometry x="10" y="525" width="120" height="60" as="geometry" />
        </mxCell>
        <mxCell id="gNgsm83nMWRvYjlt7WEY-37" value="CRUD" style="whiteSpace=wrap;html=1;rounded=1;" vertex="1" parent="WIyWlLk6GJQsqaUBKTNV-1">
          <mxGeometry x="650" y="300" width="120" height="60" as="geometry" />
        </mxCell>
        <mxCell id="gNgsm83nMWRvYjlt7WEY-42" value="" style="edgeStyle=none;rounded=0;orthogonalLoop=1;jettySize=auto;html=1;" edge="1" parent="WIyWlLk6GJQsqaUBKTNV-1" source="gNgsm83nMWRvYjlt7WEY-39" target="gNgsm83nMWRvYjlt7WEY-41">
          <mxGeometry relative="1" as="geometry" />
        </mxCell>
        <mxCell id="gNgsm83nMWRvYjlt7WEY-39" value="정보입력" style="whiteSpace=wrap;html=1;rounded=1;" vertex="1" parent="WIyWlLk6GJQsqaUBKTNV-1">
          <mxGeometry x="270" y="290" width="120" height="60" as="geometry" />
        </mxCell>
        <mxCell id="gNgsm83nMWRvYjlt7WEY-41" value="DB 조회" style="rhombus;whiteSpace=wrap;html=1;" vertex="1" parent="WIyWlLk6GJQsqaUBKTNV-1">
          <mxGeometry x="290" y="390" width="80" height="80" as="geometry" />
        </mxCell>
        <mxCell id="gNgsm83nMWRvYjlt7WEY-43" value="" style="endArrow=classic;html=1;rounded=0;exitX=0.5;exitY=1;exitDx=0;exitDy=0;" edge="1" parent="WIyWlLk6GJQsqaUBKTNV-1" source="gNgsm83nMWRvYjlt7WEY-41" target="gNgsm83nMWRvYjlt7WEY-59">
          <mxGeometry relative="1" as="geometry">
            <mxPoint x="360" y="390" as="sourcePoint" />
            <mxPoint x="330" y="520" as="targetPoint" />
          </mxGeometry>
        </mxCell>
        <mxCell id="gNgsm83nMWRvYjlt7WEY-44" value="일치" style="edgeLabel;resizable=0;html=1;align=center;verticalAlign=middle;" connectable="0" vertex="1" parent="gNgsm83nMWRvYjlt7WEY-43">
          <mxGeometry relative="1" as="geometry" />
        </mxCell>
        <mxCell id="gNgsm83nMWRvYjlt7WEY-50" value="" style="endArrow=classic;html=1;rounded=0;exitX=1;exitY=0.5;exitDx=0;exitDy=0;entryX=0;entryY=0.5;entryDx=0;entryDy=0;" edge="1" parent="WIyWlLk6GJQsqaUBKTNV-1" source="gNgsm83nMWRvYjlt7WEY-41" target="gNgsm83nMWRvYjlt7WEY-52">
          <mxGeometry relative="1" as="geometry">
            <mxPoint x="360" y="390" as="sourcePoint" />
            <mxPoint x="460" y="430" as="targetPoint" />
          </mxGeometry>
        </mxCell>
        <mxCell id="gNgsm83nMWRvYjlt7WEY-51" value="불일치" style="edgeLabel;resizable=0;html=1;align=center;verticalAlign=middle;" connectable="0" vertex="1" parent="gNgsm83nMWRvYjlt7WEY-50">
          <mxGeometry relative="1" as="geometry" />
        </mxCell>
        <mxCell id="gNgsm83nMWRvYjlt7WEY-52" value="로그인 화면" style="rounded=1;whiteSpace=wrap;html=1;" vertex="1" parent="WIyWlLk6GJQsqaUBKTNV-1">
          <mxGeometry x="440" y="400" width="120" height="60" as="geometry" />
        </mxCell>
        <mxCell id="gNgsm83nMWRvYjlt7WEY-53" value="" style="edgeStyle=none;rounded=0;orthogonalLoop=1;jettySize=auto;html=1;" edge="1" parent="WIyWlLk6GJQsqaUBKTNV-1" target="gNgsm83nMWRvYjlt7WEY-55" source="gNgsm83nMWRvYjlt7WEY-3">
          <mxGeometry relative="1" as="geometry">
            <mxPoint x="242" y="250" as="sourcePoint" />
          </mxGeometry>
        </mxCell>
        <mxCell id="gNgsm83nMWRvYjlt7WEY-54" value="" style="edgeStyle=orthogonalEdgeStyle;rounded=0;orthogonalLoop=1;jettySize=auto;html=1;" edge="1" parent="WIyWlLk6GJQsqaUBKTNV-1" source="gNgsm83nMWRvYjlt7WEY-55" target="gNgsm83nMWRvYjlt7WEY-57">
          <mxGeometry relative="1" as="geometry" />
        </mxCell>
        <mxCell id="gNgsm83nMWRvYjlt7WEY-55" value="관리자 설정" style="whiteSpace=wrap;html=1;rounded=1;" vertex="1" parent="WIyWlLk6GJQsqaUBKTNV-1">
          <mxGeometry x="140" y="290" width="120" height="60" as="geometry" />
        </mxCell>
        <mxCell id="gNgsm83nMWRvYjlt7WEY-57" value="회원정보 열람 및 삭제 기능 추가" style="whiteSpace=wrap;html=1;rounded=1;" vertex="1" parent="WIyWlLk6GJQsqaUBKTNV-1">
          <mxGeometry x="140" y="400" width="120" height="60" as="geometry" />
        </mxCell>
        <mxCell id="gNgsm83nMWRvYjlt7WEY-59" value="다른페이지로 넘어가도 로그인 상태 유지" style="rounded=1;whiteSpace=wrap;html=1;" vertex="1" parent="WIyWlLk6GJQsqaUBKTNV-1">
          <mxGeometry x="270" y="525" width="120" height="60" as="geometry" />
        </mxCell>
      </root>
    </mxGraphModel>
  </diagram>
</mxfile>
